<?xml version="1.0" encoding="utf-8"?>
<!-- Generator: Adobe Illustrator 25.3.1, SVG Export Plug-In . SVG Version: 6.00 Build 0)  -->
<svg version="1.1" id="Layer_1" xmlns="http://www.w3.org/2000/svg" xmlns:xlink="http://www.w3.org/1999/xlink" x="0px" y="0px"
	 viewBox="0 0 557.2 209.3" style="enable-background:new 0 0 557.2 209.3;" xml:space="preserve">
<style type="text/css">
	.st0{fill:#414042;}
	.st1{clip-path:url(#SVGID_2_);fill:url(#SVGID_3_);}
	.st2{fill-rule:evenodd;clip-rule:evenodd;fill:#8ED8F8;}
</style>
<g>
	<path class="st0" d="M41.4,208c-1.4-2.3-3.1-4.8-5-7.4s-4-5.3-6.3-8s-4.6-5.2-7-7.7s-4.9-4.6-7.3-6.5V208H0v-70.1h15.8v26.5
		c4.1-4.3,8.2-8.8,12.4-13.5c4.1-4.7,8-9,11.6-13h18.7c-4.8,5.7-9.6,11.1-14.4,16.4c-4.8,5.3-9.9,10.6-15.2,15.9
		c5.6,4.7,11,10.2,16.2,16.6c5.2,6.4,10.2,13.5,15,21.2L41.4,208L41.4,208z"/>
	<path class="st0" d="M92.5,208.9c-3.8,0-7.7-0.1-11.5-0.4c-3.8-0.2-7.8-0.8-11.9-1.7v-68c3.2-0.6,6.8-1.1,10.6-1.4
		c3.8-0.3,7.4-0.5,10.7-0.5c4.5,0,8.5,0.3,12.3,1c3.7,0.6,7,1.7,9.7,3.3s4.8,3.6,6.3,6.1s2.3,5.6,2.3,9.4c0,5.6-2.7,10-8.1,13.2
		c4.5,1.7,7.5,4,9.1,6.9s2.4,6.2,2.4,9.8c0,7.3-2.7,12.9-8,16.6C111.1,207.1,103.1,208.9,92.5,208.9L92.5,208.9z M84.6,177.5v18.1
		c1.1,0.1,2.4,0.2,3.7,0.3c1.3,0.1,2.8,0.1,4.5,0.1c4.7,0,8.5-0.7,11.4-2s4.3-3.8,4.3-7.5c0-3.2-1.2-5.5-3.6-6.9s-5.9-2.1-10.4-2.1
		L84.6,177.5L84.6,177.5z M84.6,165.4h7.7c4.9,0,8.3-0.6,10.4-1.9c2.1-1.2,3.1-3.3,3.1-6c0-2.8-1.1-4.8-3.2-6
		c-2.2-1.1-5.3-1.7-9.5-1.7c-1.3,0-2.8,0-4.3,0.1c-1.6,0-2.9,0.1-4.1,0.3L84.6,165.4L84.6,165.4z"/>
	<polygon class="st0" points="161.4,208 161.4,137.9 208.8,137.9 208.8,151.2 177.2,151.2 177.2,164.9 205.2,164.9 205.2,177.9 
		177.2,177.9 177.2,194.8 211.1,194.8 211.1,208 	"/>
	<path class="st0" d="M269.7,208c-4.5-8-9.4-15.9-14.7-23.8c-5.3-7.8-10.9-15.2-16.8-22.1V208h-15.6v-70.1h12.8
		c2.2,2.2,4.7,5,7.4,8.2s5.4,6.7,8.2,10.4s5.6,7.5,8.3,11.4c2.8,3.9,5.4,7.7,7.8,11.4v-41.4H283V208H269.7L269.7,208z"/>
	<polygon class="st0" points="299.2,208 299.2,137.9 346.5,137.9 346.5,151.2 315,151.2 315,164.9 343,164.9 343,177.9 315,177.9 
		315,194.8 348.8,194.8 348.8,208 	"/>
	<path class="st0" d="M381,137.1c10.5,0,18.6,1.9,24.2,5.6c5.6,3.7,8.4,9.6,8.4,17.4c0,4.9-1.1,8.9-3.4,12s-5.5,5.5-9.8,7.2
		c1.4,1.8,2.9,3.8,4.5,6c1.6,2.3,3.1,4.6,4.6,7.1s3,5,4.4,7.7s2.7,5.3,3.9,7.8h-17.7c-1.3-2.3-2.6-4.6-3.9-7s-2.7-4.7-4-6.9
		c-1.4-2.2-2.7-4.3-4.1-6.3c-1.3-2-2.7-3.8-4-5.4h-7.8V208h-15.8v-69.1c3.4-0.7,7-1.1,10.7-1.4C374.8,137.2,378.1,137.1,381,137.1
		L381,137.1z M381.9,150.6c-1.1,0-2.2,0-3.1,0.1s-1.8,0.1-2.6,0.2v19h4.5c5.9,0,10.2-0.7,12.7-2.2c2.6-1.5,3.8-4,3.8-7.6
		c0-3.4-1.3-5.9-3.9-7.3C390.8,151.3,387,150.6,381.9,150.6L381.9,150.6z"/>
	<path class="st0" d="M462.1,150.1c-7.3,0-12.7,2-15.9,6.1c-3.3,4.1-4.9,9.7-4.9,16.7c0,3.4,0.4,6.6,1.2,9.4c0.8,2.8,2,5.2,3.6,7.2
		s3.6,3.6,6.1,4.7c2.4,1.1,5.3,1.7,8.5,1.7c1.8,0,3.3,0,4.5-0.1s2.3-0.2,3.3-0.4V171h15.8v34.7c-1.9,0.7-4.9,1.5-9.1,2.4
		c-4.2,0.8-9.3,1.3-15.5,1.3c-5.3,0-10-0.8-14.3-2.4c-4.3-1.6-7.9-4-11-7.1c-3-3.1-5.4-6.9-7-11.4c-1.7-4.5-2.5-9.7-2.5-15.5
		c0-5.9,0.9-11.1,2.7-15.6c1.8-4.5,4.3-8.3,7.5-11.5c3.2-3.1,6.9-5.5,11.2-7.1c4.3-1.6,8.9-2.4,13.7-2.4c3.3,0,6.3,0.2,9,0.7
		c2.7,0.4,5,0.9,6.9,1.5s3.5,1.2,4.8,1.8c1.2,0.6,2.1,1.1,2.7,1.4l-4.6,12.6c-2.2-1.1-4.6-2.1-7.4-3
		C468.5,150.5,465.4,150.1,462.1,150.1L462.1,150.1z"/>
	<path class="st0" d="M524.6,166.7c2.8-4.8,5.5-9.6,8.1-14.4c2.6-4.8,4.9-9.6,7.1-14.5h17.4c-3.8,7.6-7.8,14.9-11.9,21.9
		c-4.1,7.1-8.5,14.2-13,21.3v27h-15.8v-26.6c-4.6-7.1-9-14.3-13.1-21.4c-4.1-7.1-8.1-14.5-12-22h18.3c2.2,4.9,4.5,9.7,7,14.5
		C519.1,157.2,521.8,162,524.6,166.7L524.6,166.7z"/>
</g>
<g>
	<g>
		<g>
			<g>
				<g>
					<g>
						<defs>
							<path id="SVGID_1_" d="M412.7,36c25.4,1.3,45.1,10.1,45.1,21.8s-17.3,26.6-45.5,26.7c-28.1,0.1-44.8-9.2-51.5-12.4
								c21,5.9,43.7,7.4,61.7,2.8C453.8,66.9,449.6,41.9,412.7,36L412.7,36z M336.6,55.3c0,0,38.3-27.2,81.5-21.4
								c43.1,5.8,47.8,20.7,48.5,24.1c-6.2-44.8-104.5-49.2-143.3-12.8C325.3,46.8,333.7,53,336.6,55.3L336.6,55.3z M245,28.3
								c0,0,31.8,8.9,57,28.2c-6.2,11.1-42.1,36.3-92.9,37.4c7.1,2.4,80.4,6.3,118.6-33.1C315.8,52.3,274.6,25.9,245,28.3L245,28.3z
								 M212.7,6.3c28,2.7,53,10,71.3,19.6c-18.3-5.4-40.4-8-59.4-7.8c-23,0.3-43.8,3.3-59.8,8.1C118,40.3,115.1,74.4,166.1,90
								c40.2,12.3,106.9,8,132.8-4.7c-46.6,29.4-201.2,20.1-200.2-31.9C99.2,27.3,153.7,0.5,212.7,6.3L212.7,6.3z"/>
						</defs>
						<clipPath id="SVGID_2_">
							<use xlink:href="#SVGID_1_"  style="overflow:visible;"/>
						</clipPath>
						
							<linearGradient id="SVGID_3_" gradientUnits="userSpaceOnUse" x1="98.7" y1="158.3309" x2="466.6" y2="158.3309" gradientTransform="matrix(1 0 0 -1 0 212)">
							<stop  offset="0" style="stop-color:#0093D5"/>
							<stop  offset="1" style="stop-color:#25B36A"/>
						</linearGradient>
						<rect x="98.7" y="5.5" class="st1" width="367.9" height="96.3"/>
					</g>
				</g>
			</g>
		</g>
	</g>
</g>
<path class="st2" d="M417.7,88.1c-23.8-1-46.2-1.5-88.8-34.8S248.5,18,213.7,21c40.1,1.4,75.8,8.4,114.3,36.8
	C366.4,86.3,390.4,91.6,417.7,88.1L417.7,88.1z"/>
</svg>
