<?xml version="1.0" encoding="utf-8"?>
<!-- Generator: Adobe Illustrator 25.3.1, SVG Export Plug-In . SVG Version: 6.00 Build 0)  -->
<svg version="1.1" id="Isolation_Mode" xmlns="http://www.w3.org/2000/svg" xmlns:xlink="http://www.w3.org/1999/xlink" x="0px"
	 y="0px" viewBox="0 0 60 60" style="enable-background:new 0 0 60 60;" xml:space="preserve">
<style type="text/css">
	.st0{fill:#D1D4D1;}
	.st1{fill:#1D53BB;}
	.st2{fill:#FF5050;}
	.st3{fill:#556080;}
</style>
<g>
	<path class="st0" d="M38.7,13h-8c-0.6,0-1-0.4-1-1s0.4-1,1-1h8c0.6,0,1,0.4,1,1S39.3,13,38.7,13z"/>
	<path class="st0" d="M25.7,13c-0.3,0-0.5-0.1-0.7-0.3c-0.2-0.2-0.3-0.4-0.3-0.7c0-0.3,0.1-0.5,0.3-0.7c0.4-0.4,1-0.4,1.4,0
		c0.2,0.2,0.3,0.4,0.3,0.7c0,0.3-0.1,0.5-0.3,0.7C26.2,12.9,26,13,25.7,13z"/>
	<path class="st0" d="M28.7,8h-3c-0.6,0-1-0.4-1-1s0.4-1,1-1h3c0.6,0,1,0.4,1,1S29.3,8,28.7,8z"/>
	<path class="st0" d="M38.7,8h-2c-0.6,0-1-0.4-1-1s0.4-1,1-1h2c0.6,0,1,0.4,1,1S39.3,8,38.7,8z"/>
	<path class="st0" d="M32.7,8c-0.3,0-0.5-0.1-0.7-0.3c-0.2-0.2-0.3-0.4-0.3-0.7s0.1-0.5,0.3-0.7c0.4-0.4,1-0.4,1.4,0
		c0.2,0.2,0.3,0.4,0.3,0.7s-0.1,0.5-0.3,0.7C33.2,7.9,33,8,32.7,8z"/>
	<rect x="20.7" y="31.6" class="st1" width="8" height="25.6"/>
	<rect x="31.7" y="18.6" class="st1" width="8" height="31.9"/>
	<rect x="42.7" y="27.2" class="st1" width="8" height="16.8"/>
	<rect x="53.7" y="30" class="st1" width="8" height="21.4"/>
	<rect x="64.7" y="36.2" class="st1" width="8" height="12"/>
	<rect x="20.7" y="44.9" class="st2" width="8" height="14.1"/>
	<rect x="31.7" y="34.5" class="st2" width="8" height="24.5"/>
	<rect x="42.7" y="40.8" class="st2" width="8" height="18.2"/>
	<rect x="53.7" y="45.2" class="st2" width="8" height="13.8"/>
	<rect x="64.7" y="42.1" class="st2" width="8" height="16.9"/>
	<path class="st3" d="M16.7,59V1c0-0.6,0.4-1,1-1c0.6,0,1,0.4,1,1v58c0,0.6-0.4,1-1,1C17.2,60,16.7,59.6,16.7,59z"/>
	<path class="st3" d="M75.7,60h-58c-0.6,0-1-0.4-1-1s0.4-1,1-1h58c0.6,0,1,0.4,1,1S76.3,60,75.7,60z"/>
</g>
</svg>
